{"title":"The.White.Dawn.1974.dvdrip.xvid.ac3-MB&amp;BBK","uid":7153240,"size":1594581115,"categoryP":"video","categoryS":"movies","magnet":"?xt=urn:btih:fd01811334e9043002d3005c9206baf6b85a5135&amp;dn=The.White.Dawn.1974.dvdrip.xvid.ac3-MB%26amp%3BBBK&amp;tr=udp%3A%2F%2Ftracker.openbittorrent.com%3A80&amp;tr=udp%3A%2F%2Fopen.demonii.com%3A1337&amp;tr=udp%3A%2F%2Ftracker.coppersurfer.tk%3A6969&amp;tr=udp%3A%2F%2Fexodus.desync.com%3A6969","seeders":0,"leechers":2,"uploader":"tspia","files":5,"time":1333376294,"description":"The.White.Dawn.1974.dvdrip.xvid.ac3-MB&amp;BBK.avi\n\n\nFile size                        : 1.46 GiB\nDuration                         : 1h 49mn\nOverall bit rate                 : 1,910 Kbps\n\n\nVideo\nFormat                           : MPEG-4 Visual\nCodec ID                         : XVID\nCodec ID/Hint                    : XviD\nDuration                         : 1h 49mn\nBit rate                         : 1,512 Kbps\nWidth                            : 688 pixels\nHeight                           : 384 pixels\nDisplay aspect ratio             : 16:9\nFrame rate                       : 23.976 fps\nBit depth                        : 8 bits\nCompression mode                 : Lossy\nBits/(Pixel*Frame)               : 0.239\nStream size                      : 1.16 GiB (79%)\n\n\nAudio #1\nID                               : 1\nFormat                           : AC-3\nFormat/Info                      : Audio Coding 3\nFormat profile                   : Dolby Digital\nDuration                         : 1h 49mn\nBit rate mode                    : Constant\nBit rate                         : 192 Kbps\nChannel(s)                       : 2 channels\nSampling rate                    : 48.0 KHz\nBit depth                        : 16 bits\nStream size                      : 151 MiB (10%)\n\n\nAudio #2\nID                               : 2\nFormat                           : AC-3\nFormat/Info                      : Audio Coding 3\nFormat profile                   : Dolby Digital\nDuration                         : 1h 49mn\nBit rate mode                    : Constant\nBit rate                         : 192 Kbps\nChannel(s)                       : 2 channels\nSampling rate                    : 48.0 KHz\nBit depth                        : 16 bits\nStream size                      : 151 MiB (10%)\n","torrent":{"xt":"urn:btih:fd01811334e9043002d3005c9206baf6b85a5135","amp;dn":"The.White.Dawn.1974.dvdrip.xvid.ac3-MB%26amp%3BBBK","amp;tr":["udp%3A%2F%2Ftracker.openbittorrent.com%3A80","udp%3A%2F%2Fopen.demonii.com%3A1337","udp%3A%2F%2Ftracker.coppersurfer.tk%3A6969","udp%3A%2F%2Fexodus.desync.com%3A6969"],"infoHash":"fd01811334e9043002d3005c9206baf6b85a5135","infoHashBuffer":{"type":"Buffer","data":[253,1,129,19,52,233,4,48,2,211,0,92,146,6,186,246,184,90,81,53]},"announce":[],"urlList":[]}}